<svg width="500" height="500" viewBox="0 0 500 500" fill="none" xmlns="http://www.w3.org/2000/svg">
<rect width="500" height="500" fill="white"/>
<path fill-rule="evenodd" clip-rule="evenodd" d="M203.33 123.831C215.708 111.454 232.495 104.5 250 104.5C267.504 104.5 284.291 111.454 296.669 123.831C308.554 135.717 315.439 151.669 315.968 168.418C331.911 163.823 349.039 165.417 363.893 172.936C379.444 180.807 391.234 194.526 396.679 211.082L386.5 214.429L396.687 211.108C399.357 219.303 400.381 227.945 399.7 236.537C399.019 245.129 396.644 253.501 392.714 261.172C388.782 268.843 383.374 275.66 376.797 281.232C370.879 286.248 364.118 290.164 356.839 292.806C361.137 299.201 364.272 306.314 366.089 313.818C368.119 322.201 368.464 330.904 367.105 339.421C365.744 347.939 362.706 356.101 358.167 363.436C353.631 370.763 347.689 377.116 340.681 382.129C326.551 392.333 308.966 396.552 291.743 393.874C275.291 391.313 260.437 382.656 250.107 369.672C239.776 382.656 224.922 391.313 208.47 393.874C191.248 396.552 173.663 392.333 159.533 382.131C152.525 377.116 146.582 370.763 142.047 363.436C137.507 356.101 134.469 347.939 133.109 339.421C131.749 330.904 132.095 322.201 134.125 313.818C135.937 306.334 139.06 299.238 143.342 292.856C135.989 290.165 129.172 286.177 123.216 281.075C116.673 275.471 111.297 268.633 107.397 260.951C103.497 253.269 101.148 244.894 100.484 236.305C99.8203 227.715 100.855 219.079 103.529 210.889C106.203 202.7 110.463 195.117 116.068 188.574C121.672 182.031 128.51 176.656 136.192 172.755C143.874 168.855 152.248 166.506 160.838 165.842C168.657 165.238 176.515 166.041 184.039 168.207C184.619 151.535 191.495 135.667 203.33 123.831ZM297.25 255.572C297.25 281.493 276.096 302.506 250.001 302.506C223.905 302.506 202.751 281.493 202.751 255.572C202.751 229.651 223.905 208.637 250.001 208.637C276.096 208.637 297.25 229.651 297.25 255.572Z" fill="#00C7BE"/>
<ellipse cx="255" cy="255.5" rx="81" ry="67.5" fill="#00C7BE"/>
<g clip-path="url(#clip0_53_28)">
<path fill-rule="evenodd" clip-rule="evenodd" d="M221.801 201.231C231.256 201.901 241.108 206.408 250.539 215.529C259.968 206.41 269.812 201.912 279.258 201.257C289.919 200.518 299.344 204.731 306.163 211.378C319.57 224.448 323.78 248.097 307.144 264.363C307.088 264.418 307.03 264.471 306.971 264.524L253.776 311.638C251.939 313.264 249.14 313.264 247.303 311.638L194.107 264.524C194.048 264.471 193.991 264.418 193.935 264.363C177.212 248.012 181.399 224.36 194.85 211.301C201.686 204.664 211.13 200.475 221.801 201.231Z" fill="#AF52DE"/>
</g>
<defs>
<clipPath id="clip0_53_28">
<rect width="135" height="132" fill="white" transform="translate(183 191)"/>
</clipPath>
</defs>
</svg>
